<svg width="589" height="470" viewBox="0 0 589 470" fill="none" xmlns="http://www.w3.org/2000/svg">
<g clip-path="url(#clip0_63_2)">
<path d="M207.7 254.1C201.15 240.29 213.1 230.25 211.79 219.31C211.17 214.12 207.88 214.46 205.22 211.76C199.44 205.91 200.35 195.56 207.26 191.13C208.29 190.47 209.84 190.55 210.1 189.61C203.31 186.81 197.41 180.47 199.44 172.21C200.7 167.1 207.23 164.42 203.68 158.24C201.61 154.64 190.6 150.43 186.56 146.11C176.58 135.43 188.81 131.55 195.71 125.22C207.81 114.12 220.68 97.96 222.74 80.88C226.24 51.87 230.48 31.39 247.59 7.31C249.16 5.1 250.83 2.91 252.58 0.75V0H173.52V294.25H252.58V264.81C234.54 266.77 214.06 267.57 207.68 254.1H207.7Z" fill="url(#paint0_linear_63_2)"/>
<path d="M282.47 136C282.47 136 331.9 94.3 414.75 0H365.99C365.99 0 285.94 89.61 230.94 136C285.93 189.98 365.99 294.26 365.99 294.26H414.75C331.91 184.52 282.47 136 282.47 136Z" fill="url(#paint1_linear_63_2)"/>
<path d="M35.74 385.73C35.74 382.19 34.92 379.14 33.29 376.56C31.65 373.98 29.38 371.98 26.47 370.56C23.56 369.14 20.21 368.43 16.41 368.43H0V403.13H16.41C20.21 403.13 23.57 402.42 26.47 401C29.38 399.58 31.65 397.57 33.29 394.98C34.93 392.39 35.74 389.3 35.74 385.73ZM24.59 390.86C23.76 392.3 22.61 393.4 21.14 394.16C19.67 394.92 17.93 395.3 15.91 395.3H9.81V376.26H15.91C17.92 376.26 19.67 376.64 21.14 377.4C22.61 378.16 23.76 379.24 24.59 380.65C25.42 382.06 25.83 383.77 25.83 385.78C25.83 387.79 25.42 389.42 24.59 390.86Z" fill="black"/>
<path d="M49.47 379.5V376.22H40.45V403.14H49.87V390.8C49.87 388.45 50.46 386.76 51.65 385.72C52.84 384.68 54.39 384.16 56.31 384.16C56.64 384.16 56.97 384.16 57.3 384.18C57.63 384.2 58.01 384.24 58.44 384.3V375.77C55.89 375.77 53.74 376.28 51.97 377.31C50.98 377.88 50.16 378.62 49.47 379.5Z" fill="black"/>
<path d="M65.88 403.58C67.47 403.58 68.8 403.06 69.9 402.02C71 400.98 71.54 399.62 71.54 397.93C71.54 396.24 71 394.95 69.9 393.94C68.81 392.93 67.47 392.43 65.88 392.43C64.29 392.43 62.96 392.93 61.87 393.94C60.78 394.95 60.23 396.28 60.23 397.93C60.23 399.58 60.77 400.98 61.87 402.02C62.97 403.06 64.3 403.58 65.88 403.58Z" fill="black"/>
<path d="M89.75 390.53L99.68 403.13H111.09L96.2 383.8L110.29 368.43H99.54L86.1 382.85V368.43H76.44V403.13H86.1V394.44L89.75 390.53Z" fill="black"/>
<path d="M117.95 401.77C120.31 402.98 123.1 403.58 126.3 403.58C128.84 403.58 131.06 403.21 132.94 402.46C134.82 401.72 136.39 400.65 137.65 399.26L132.74 394.05C131.81 394.84 130.89 395.43 129.96 395.81C129.03 396.19 127.89 396.38 126.54 396.38C125.12 396.38 123.9 396.12 122.87 395.61C121.85 395.1 121.06 394.36 120.52 393.4C120.29 392.99 120.11 392.54 119.98 392.06H139.48C139.51 391.7 139.55 391.3 139.58 390.87C139.61 390.44 139.63 390.06 139.63 389.73C139.63 386.76 138.98 384.24 137.67 382.17C136.36 380.1 134.63 378.52 132.46 377.41C130.29 376.3 127.89 375.75 125.25 375.75C122.41 375.75 119.87 376.34 117.64 377.54C115.41 378.73 113.66 380.37 112.39 382.47C111.12 384.57 110.48 386.97 110.48 389.68C110.48 392.39 111.13 394.69 112.44 396.79C113.75 398.89 115.58 400.54 117.94 401.75L117.95 401.77ZM122.34 383.25C123.2 382.75 124.21 382.51 125.36 382.51C126.51 382.51 127.46 382.76 128.28 383.25C129.11 383.75 129.76 384.45 130.24 385.36C130.52 385.9 130.7 386.49 130.81 387.12H119.83C119.94 386.48 120.11 385.89 120.37 385.36C120.82 384.45 121.47 383.75 122.33 383.25H122.34Z" fill="black"/>
<path d="M153.42 390.79C153.42 388.44 154.01 386.75 155.2 385.71C156.39 384.67 157.94 384.15 159.86 384.15C160.19 384.15 160.52 384.15 160.85 384.17C161.18 384.19 161.56 384.23 161.99 384.29V375.76C159.45 375.76 157.29 376.27 155.52 377.3C154.53 377.87 153.71 378.61 153.02 379.49V376.21H144V403.13H153.42V390.79Z" fill="black"/>
<path d="M170.57 363.37C169.12 363.37 167.93 363.83 167.03 364.76C166.12 365.69 165.67 366.86 165.67 368.28C165.67 369.7 166.12 370.83 167.03 371.75C167.94 372.68 169.12 373.14 170.57 373.14C172.02 373.14 173.16 372.68 174.09 371.75C175.01 370.83 175.48 369.67 175.48 368.28C175.48 366.89 175.02 365.69 174.09 364.76C173.17 363.84 171.99 363.37 170.57 363.37Z" fill="black"/>
<path d="M175.28 376.21H165.86V403.13H175.28V376.21Z" fill="black"/>
<path d="M216.72 385.11C217.45 385.99 217.81 387.38 217.81 389.3V403.13H227.23V387.76C227.23 384.98 226.76 382.72 225.82 380.97C224.88 379.22 223.59 377.91 221.95 377.05C220.31 376.19 218.45 375.76 216.37 375.76C213.86 375.76 211.64 376.39 209.7 377.64C208.68 378.3 207.8 379.1 207.05 380.01C206.44 379.03 205.68 378.24 204.76 377.61C202.94 376.37 200.81 375.75 198.37 375.75C196.25 375.75 194.34 376.25 192.62 377.24C191.79 377.72 191.04 378.32 190.39 379.02V376.2H181.37V403.12H190.79V389.83C190.79 388.41 191 387.26 191.41 386.38C191.82 385.5 192.39 384.85 193.12 384.42C193.85 383.99 194.66 383.78 195.55 383.78C196.84 383.78 197.84 384.22 198.55 385.09C199.26 385.97 199.62 387.36 199.62 389.28V403.11H209.04V389.82C209.04 388.4 209.24 387.25 209.63 386.37C210.03 385.49 210.58 384.84 211.29 384.41C212 383.98 212.82 383.77 213.74 383.77C215 383.77 215.99 384.21 216.71 385.08L216.72 385.11Z" fill="black"/>
<path d="M275.66 392.62C275.66 390.8 275.3 389.29 274.57 388.08C273.84 386.87 272.89 385.9 271.72 385.16C270.55 384.42 269.27 383.82 267.88 383.38C266.49 382.94 265.1 382.56 263.69 382.26C262.28 381.96 261 381.67 259.85 381.39C258.69 381.11 257.75 380.75 257.02 380.3C256.29 379.85 255.93 379.23 255.93 378.44C255.93 377.91 256.11 377.42 256.47 376.95C256.83 376.49 257.43 376.11 258.26 375.81C259.09 375.51 260.18 375.36 261.53 375.36C263.05 375.36 264.62 375.58 266.24 376C267.86 376.43 269.49 377.11 271.15 378.03L274.12 370.79C272.43 369.77 270.49 369 268.3 368.49C266.1 367.98 263.86 367.72 261.58 367.72C258.18 367.72 255.33 368.23 253.05 369.26C250.77 370.29 249.07 371.64 247.94 373.33C246.81 375.02 246.26 376.88 246.26 378.93C246.26 380.78 246.61 382.32 247.33 383.54C248.04 384.76 248.97 385.75 250.13 386.51C251.29 387.27 252.58 387.88 254 388.34C255.42 388.8 256.82 389.17 258.19 389.46C259.56 389.74 260.83 390.04 262.01 390.35C263.18 390.66 264.13 391.04 264.86 391.49C265.59 391.94 265.95 392.54 265.95 393.3C265.95 393.9 265.76 394.41 265.38 394.84C265 395.27 264.4 395.6 263.59 395.83C262.78 396.06 261.68 396.18 260.29 396.18C258.27 396.18 256.25 395.86 254.22 395.21C252.19 394.57 250.39 393.75 248.84 392.76L245.62 400.05C247.24 401.14 249.36 402.04 251.99 402.75C254.62 403.46 257.37 403.82 260.24 403.82C263.68 403.82 266.54 403.31 268.82 402.28C271.1 401.26 272.81 399.89 273.95 398.19C275.09 396.49 275.66 394.63 275.66 392.61V392.62Z" fill="black"/>
<path d="M296.08 399.61V403.13H304.85V388.21C304.85 383.95 303.65 380.81 301.26 378.79C298.86 376.77 295.48 375.77 291.12 375.77C289 375.77 286.88 376.05 284.75 376.61C282.62 377.17 280.79 377.95 279.27 378.94L282.39 385.28C283.31 384.62 284.45 384.07 285.79 383.64C287.13 383.21 288.44 383 289.73 383C291.71 383 293.16 383.41 294.07 384.21C294.89 384.94 295.32 385.97 295.4 387.26H290.08C287.34 387.26 285.08 387.58 283.31 388.23C281.54 388.87 280.24 389.81 279.39 391.03C278.55 392.25 278.13 393.69 278.13 395.34C278.13 396.86 278.52 398.25 279.3 399.5C280.08 400.76 281.22 401.75 282.72 402.47C284.22 403.19 286.03 403.56 288.15 403.56C290.5 403.56 292.39 403.09 293.83 402.15C294.8 401.51 295.54 400.65 296.08 399.59V399.61ZM290.78 397.63C289.69 397.63 288.83 397.37 288.2 396.86C287.57 396.35 287.26 395.69 287.26 394.9C287.26 394.04 287.56 393.38 288.18 392.92C288.79 392.46 289.86 392.23 291.38 392.23H295.44V394.51C295.08 395.57 294.47 396.35 293.63 396.86C292.79 397.37 291.84 397.63 290.78 397.63Z" fill="black"/>
<path d="M330.28 378.61C329.8 378.11 329.28 377.65 328.69 377.28C327.07 376.27 325.12 375.77 322.84 375.77C320.43 375.77 318.21 376.34 316.2 377.48C314.18 378.62 312.59 380.22 311.42 382.29C310.25 384.36 309.66 386.83 309.66 389.7C309.66 392.57 310.25 395 311.42 397.06C312.59 399.12 314.19 400.73 316.2 401.87C318.21 403.01 320.43 403.58 322.84 403.58C325.25 403.58 327.26 403.08 328.86 402.09C329.56 401.65 330.17 401.1 330.72 400.46V403.13H339.69V366.35H330.27V378.61H330.28ZM329.69 393.14C329.19 394.11 328.53 394.85 327.68 395.35C326.84 395.85 325.89 396.09 324.83 396.09C323.77 396.09 322.77 395.84 321.93 395.35C321.09 394.85 320.42 394.12 319.92 393.14C319.42 392.17 319.18 391.02 319.18 389.69C319.18 388.27 319.43 387.1 319.92 386.17C320.42 385.25 321.09 384.53 321.93 384.04C322.77 383.54 323.74 383.3 324.83 383.3C325.92 383.3 326.84 383.55 327.68 384.04C328.52 384.54 329.19 385.25 329.69 386.17C330.19 387.1 330.43 388.27 330.43 389.69C330.43 391.01 330.18 392.16 329.69 393.14Z" fill="black"/>
<path d="M364.54 389.25C364.54 390.71 364.32 391.9 363.9 392.84C363.47 393.78 362.87 394.47 362.09 394.9C361.31 395.33 360.46 395.54 359.54 395.54C358.12 395.54 357.02 395.09 356.24 394.18C355.46 393.27 355.08 391.78 355.08 389.69V376.21H345.66V391.23C345.66 394.07 346.15 396.41 347.12 398.24C348.09 400.07 349.45 401.42 351.18 402.28C352.91 403.14 354.87 403.57 357.05 403.57C359.1 403.57 360.99 403.08 362.73 402.11C363.6 401.62 364.36 401.01 365.03 400.28V403.13H373.95V376.21H364.53V389.25H364.54Z" fill="black"/>
<path d="M389.47 366.35H380.05V403.13H389.47V366.35Z" fill="black"/>
<path d="M404.99 366.35H395.57V403.13H404.99V366.35Z" fill="black"/>
<path d="M414.73 388.23C412.96 388.87 411.66 389.81 410.81 391.03C409.97 392.25 409.55 393.69 409.55 395.34C409.55 396.86 409.94 398.25 410.71 399.5C411.48 400.75 412.63 401.75 414.13 402.47C415.63 403.2 417.44 403.56 419.56 403.56C421.91 403.56 423.8 403.09 425.24 402.15C426.21 401.51 426.95 400.65 427.5 399.59V403.11H436.27V388.19C436.27 383.93 435.07 380.79 432.68 378.77C430.28 376.75 426.91 375.75 422.54 375.75C420.42 375.75 418.3 376.03 416.17 376.59C414.04 377.15 412.21 377.93 410.69 378.92L413.81 385.26C414.73 384.6 415.87 384.05 417.21 383.62C418.55 383.19 419.86 382.98 421.15 382.98C423.13 382.98 424.58 383.39 425.49 384.19C426.31 384.92 426.74 385.95 426.82 387.24H421.5C418.76 387.24 416.5 387.56 414.73 388.21V388.23ZM426.85 392.22V394.5C426.49 395.56 425.88 396.34 425.04 396.85C424.2 397.36 423.25 397.62 422.19 397.62C421.13 397.62 420.24 397.36 419.61 396.85C418.98 396.34 418.67 395.68 418.67 394.89C418.67 394.03 418.98 393.37 419.59 392.91C420.2 392.45 421.27 392.22 422.79 392.22H426.85Z" fill="black"/>
<path d="M461.35 389.3V403.13H470.82V387.76C470.82 384.98 470.33 382.72 469.36 380.97C468.38 379.22 467.06 377.91 465.37 377.05C463.68 376.19 461.8 375.76 459.72 375.76C457.47 375.76 455.46 376.26 453.67 377.27C452.92 377.69 452.25 378.22 451.64 378.8V366.34H442.22V403.12H451.64V390.18C451.64 388.66 451.87 387.44 452.33 386.51C452.79 385.59 453.44 384.9 454.26 384.45C455.08 384 456.01 383.78 457.04 383.78C458.36 383.78 459.41 384.22 460.19 385.09C460.97 385.96 461.36 387.36 461.36 389.28L461.35 389.3Z" fill="black"/>
<path d="M503.8 396.86C505.1 394.76 505.76 392.37 505.76 389.7C505.76 387.03 505.11 384.59 503.8 382.49C502.49 380.39 500.69 378.75 498.4 377.56C496.1 376.37 493.48 375.77 490.54 375.77C487.6 375.77 484.99 376.36 482.71 377.56C480.43 378.75 478.64 380.39 477.33 382.49C476.02 384.59 475.37 386.99 475.37 389.7C475.37 392.41 476.02 394.76 477.33 396.86C478.63 398.96 480.43 400.6 482.71 401.79C484.99 402.98 487.6 403.58 490.54 403.58C493.48 403.58 496.1 402.99 498.4 401.79C500.7 400.6 502.5 398.96 503.8 396.86ZM495.42 393.14C494.91 394.11 494.23 394.85 493.39 395.35C492.55 395.85 491.6 396.09 490.54 396.09C489.48 396.09 488.53 395.84 487.69 395.35C486.85 394.85 486.17 394.12 485.66 393.14C485.15 392.17 484.89 391 484.89 389.64C484.89 388.28 485.14 387.1 485.66 386.17C486.17 385.25 486.85 384.53 487.69 384.04C488.53 383.54 489.48 383.3 490.54 383.3C491.6 383.3 492.55 383.55 493.39 384.04C494.23 384.54 494.91 385.25 495.42 386.17C495.93 387.1 496.19 388.25 496.19 389.64C496.19 391.03 495.93 392.16 495.42 393.14Z" fill="black"/>
<path d="M517.43 371.35C519.23 372.77 521.52 373.48 524.3 373.48C527.08 373.48 529.36 372.77 531.17 371.35C532.97 369.93 533.92 368 534.02 365.55H528.27C528.2 366.51 527.8 367.29 527.06 367.91C526.32 368.52 525.4 368.83 524.31 368.83C523.22 368.83 522.26 368.52 521.53 367.91C520.8 367.3 520.41 366.51 520.34 365.55H514.59C514.69 368 515.64 369.93 517.44 371.35H517.43Z" fill="black"/>
<path d="M530 379.52C529.29 378.54 528.44 377.73 527.42 377.15C525.8 376.23 523.83 375.76 521.52 375.76C519.21 375.76 517 376.29 515 377.35C513 378.41 511.4 379.91 510.19 381.86C508.98 383.81 508.38 386.11 508.38 388.75C508.38 391.39 508.98 393.68 510.19 395.62C511.4 397.55 513 399.06 515 400.13C517 401.2 519.17 401.74 521.52 401.74C523.87 401.74 525.8 401.28 527.42 400.35C528.21 399.9 528.9 399.33 529.5 398.64V399.46C529.5 401.58 528.95 403.19 527.84 404.29C526.73 405.4 524.92 405.95 522.41 405.95C520.79 405.95 519.15 405.69 517.48 405.18C515.81 404.67 514.41 403.98 513.29 403.12L509.87 409.66C511.49 410.82 513.47 411.69 515.82 412.29C518.17 412.89 520.63 413.18 523.21 413.18C528.23 413.18 532.11 411.96 534.83 409.51C537.56 407.06 538.92 403.3 538.92 398.21V376.2H530V379.51V379.52ZM526.83 393.56C525.97 394.02 524.96 394.25 523.81 394.25C522.66 394.25 521.69 394.02 520.81 393.56C519.93 393.1 519.23 392.45 518.7 391.63C518.17 390.81 517.91 389.84 517.91 388.75C517.91 387.66 518.17 386.7 518.7 385.87C519.23 385.04 519.93 384.41 520.81 383.96C521.69 383.51 522.69 383.29 523.81 383.29C524.93 383.29 525.97 383.51 526.83 383.96C527.69 384.41 528.37 385.04 528.89 385.87C529.4 386.7 529.66 387.66 529.66 388.75C529.66 389.84 529.4 390.8 528.89 391.63C528.38 392.46 527.69 393.1 526.83 393.56Z" fill="black"/>
<path d="M554.44 366.35H545.02V403.13H554.44V366.35Z" fill="black"/>
<path d="M579.32 376.21V389.25C579.32 390.71 579.1 391.9 578.68 392.84C578.25 393.78 577.65 394.47 576.87 394.9C576.09 395.33 575.24 395.54 574.32 395.54C572.9 395.54 571.8 395.09 571.02 394.18C570.24 393.27 569.86 391.78 569.86 389.69V376.21H560.44V391.23C560.44 394.07 560.93 396.41 561.9 398.24C562.87 400.07 564.23 401.42 565.96 402.28C567.69 403.14 569.65 403.57 571.83 403.57C573.88 403.57 575.77 403.08 577.51 402.11C578.38 401.62 579.14 401.01 579.81 400.28V403.13H588.73V376.21H579.31H579.32Z" fill="black"/>
<path d="M9.16 446.67H24.83V442.87H9.16V433.27H26.75V429.38H4.69V460.65H27.38V456.76H9.16V446.67Z" fill="black"/>
<path d="M42.3 436.75C40.42 436.75 38.63 437.01 36.92 437.53C35.21 438.05 33.74 438.8 32.52 439.79L34.31 443.01C35.23 442.24 36.36 441.62 37.7 441.16C39.04 440.7 40.41 440.47 41.81 440.47C43.92 440.47 45.51 440.97 46.57 441.97C47.63 442.97 48.15 444.38 48.15 446.19V447.04H41.36C39.01 447.04 37.14 447.35 35.75 447.98C34.37 448.61 33.37 449.44 32.76 450.48C32.15 451.52 31.84 452.68 31.84 453.96C31.84 455.24 32.2 456.5 32.91 457.55C33.62 458.61 34.64 459.43 35.97 460.03C37.3 460.63 38.84 460.92 40.59 460.92C42.76 460.92 44.56 460.51 45.99 459.69C47 459.11 47.78 458.38 48.36 457.52V460.65H52.42V446.36C52.42 443.11 51.54 440.7 49.78 439.12C48.02 437.54 45.52 436.75 42.28 436.75H42.3ZM45.53 456.54C44.32 457.25 42.92 457.61 41.31 457.61C39.7 457.61 38.39 457.26 37.47 456.56C36.55 455.86 36.09 454.93 36.09 453.77C36.09 452.76 36.46 451.89 37.21 451.18C37.96 450.47 39.4 450.11 41.54 450.11H48.15V453.41C47.61 454.78 46.74 455.82 45.54 456.54H45.53Z" fill="black"/>
<path d="M64.49 440.99V436.98H60.38V460.65H64.67V448.86C64.67 446.27 65.34 444.29 66.68 442.92C68.02 441.55 69.84 440.87 72.13 440.87H72.6C72.76 440.87 72.93 440.89 73.11 440.91V436.76C70.85 436.76 68.94 437.19 67.39 438.05C66.11 438.76 65.16 439.75 64.49 440.99Z" fill="black"/>
<path d="M113.76 452.68L95 429.38H91.33V460.65H95.8V437.35L114.56 460.65H118.22V429.38H113.76V452.68Z" fill="black"/>
<path d="M143.43 438.29C141.57 437.26 139.46 436.75 137.11 436.75C134.76 436.75 132.61 437.27 130.77 438.31C128.92 439.35 127.46 440.77 126.39 442.57C125.32 444.37 124.78 446.45 124.78 448.8C124.78 451.15 125.32 453.2 126.39 455.03C127.46 456.86 128.93 458.3 130.79 459.34C132.65 460.38 134.76 460.9 137.11 460.9C139.46 460.9 141.57 460.38 143.43 459.34C145.29 458.3 146.75 456.87 147.81 455.05C148.87 453.23 149.4 451.15 149.4 448.8C149.4 446.45 148.87 444.36 147.81 442.55C146.75 440.73 145.29 439.31 143.43 438.29ZM144.04 453.21C143.35 454.48 142.41 455.45 141.2 456.14C139.99 456.83 138.63 457.17 137.11 457.17C135.59 457.17 134.24 456.83 133.05 456.14C131.86 455.46 130.91 454.48 130.19 453.21C129.48 451.95 129.12 450.48 129.12 448.81C129.12 447.14 129.48 445.65 130.19 444.41C130.9 443.18 131.86 442.21 133.05 441.53C134.24 440.85 135.6 440.5 137.11 440.5C138.62 440.5 139.99 440.84 141.2 441.53C142.41 442.22 143.35 443.18 144.04 444.41C144.72 445.65 145.07 447.11 145.07 448.81C145.07 450.51 144.73 451.94 144.04 453.21Z" fill="black"/>
<path d="M169.38 448.81C168.5 448.36 167.53 448.01 166.46 447.76C165.39 447.51 164.32 447.3 163.24 447.13C162.17 446.97 161.19 446.77 160.31 446.53C159.43 446.29 158.72 445.96 158.17 445.53C157.62 445.1 157.34 444.48 157.34 443.68C157.34 442.73 157.8 441.95 158.72 441.34C159.64 440.73 161.04 440.42 162.92 440.42C164.08 440.42 165.24 440.55 166.4 440.82C167.56 441.09 168.68 441.58 169.75 442.29L171.58 438.9C170.57 438.22 169.26 437.69 167.67 437.32C166.08 436.95 164.51 436.76 162.96 436.76C160.93 436.76 159.19 437.05 157.71 437.63C156.24 438.21 155.1 439.04 154.29 440.11C153.49 441.18 153.08 442.43 153.08 443.86C153.08 445.29 153.35 446.32 153.88 447.14C154.42 447.96 155.13 448.6 156.02 449.06C156.91 449.52 157.9 449.88 158.97 450.13C160.04 450.38 161.11 450.59 162.19 450.76C163.26 450.92 164.24 451.11 165.11 451.32C165.99 451.53 166.7 451.84 167.23 452.26C167.76 452.68 168.03 453.26 168.03 454C168.03 455.01 167.59 455.8 166.71 456.37C165.83 456.94 164.39 457.22 162.4 457.22C160.85 457.22 159.33 456.98 157.85 456.51C156.36 456.03 155.11 455.45 154.1 454.77L152.31 458.16C153.32 458.93 154.71 459.59 156.49 460.12C158.26 460.66 160.13 460.92 162.09 460.92C164.2 460.92 166.02 460.63 167.54 460.05C169.06 459.47 170.23 458.66 171.07 457.62C171.9 456.58 172.32 455.34 172.32 453.91C172.32 452.57 172.04 451.5 171.49 450.69C170.94 449.88 170.22 449.26 169.35 448.81H169.38Z" fill="black"/>
<path d="M193.48 438.27C191.72 437.26 189.7 436.75 187.41 436.75C185.12 436.75 183.11 437.26 181.31 438.29C179.51 439.32 178.09 440.74 177.07 442.55C176.04 444.37 175.53 446.45 175.53 448.8C175.53 451.15 176.06 453.24 177.12 455.05C178.18 456.87 179.67 458.3 181.59 459.34C183.51 460.38 185.74 460.9 188.27 460.9C190.23 460.9 192.01 460.57 193.61 459.92C195.2 459.27 196.53 458.31 197.61 457.06L195.24 454.29C194.38 455.24 193.37 455.96 192.23 456.43C191.08 456.91 189.81 457.14 188.41 457.14C186.71 457.14 185.21 456.8 183.9 456.11C182.59 455.43 181.57 454.46 180.84 453.23C180.3 452.32 179.97 451.31 179.82 450.22H199.04C199.07 450.01 199.09 449.79 199.11 449.55C199.13 449.31 199.13 449.1 199.13 448.92C199.13 446.48 198.63 444.34 197.63 442.51C196.63 440.68 195.25 439.26 193.5 438.24L193.48 438.27ZM183.43 441.37C184.59 440.7 185.92 440.37 187.41 440.37C188.9 440.37 190.26 440.7 191.41 441.37C192.56 442.04 193.46 442.97 194.11 444.16C194.61 445.06 194.9 446.06 195.01 447.15H179.8C179.93 446.07 180.23 445.08 180.72 444.18C181.38 442.97 182.28 442.04 183.44 441.37H183.43Z" fill="black"/>
<path d="M213.17 433.27H223.89V460.65H228.32V433.27H239.03V429.38H213.17V433.27Z" fill="black"/>
<path d="M261.03 437.87C259.56 437.13 257.85 436.75 255.92 436.75C253.78 436.75 251.9 437.18 250.29 438.04C249.18 438.64 248.28 439.41 247.57 440.34V427.5H243.28V460.64H247.57V448.45C247.57 446.72 247.87 445.28 248.49 444.12C249.11 442.96 249.97 442.08 251.1 441.49C252.23 440.89 253.56 440.6 255.07 440.6C257.09 440.6 258.67 441.18 259.78 442.34C260.9 443.5 261.45 445.23 261.45 447.52V460.65H265.74V447.03C265.74 444.71 265.32 442.79 264.49 441.27C263.66 439.75 262.5 438.62 261.03 437.88V437.87Z" fill="black"/>
<path d="M277.8 440.99V436.97H273.69V460.64H277.98V448.85C277.98 446.26 278.65 444.28 279.99 442.91C281.33 441.54 283.15 440.86 285.44 440.86H285.91C286.07 440.86 286.24 440.88 286.42 440.9V436.75C284.16 436.75 282.25 437.18 280.7 438.04C279.42 438.75 278.47 439.74 277.8 440.98V440.99Z" fill="black"/>
<path d="M307.93 438.29C306.07 437.26 303.96 436.75 301.61 436.75C299.26 436.75 297.11 437.27 295.27 438.31C293.42 439.35 291.96 440.77 290.89 442.57C289.82 444.37 289.28 446.45 289.28 448.8C289.28 451.15 289.82 453.2 290.89 455.03C291.96 456.86 293.43 458.3 295.29 459.34C297.15 460.38 299.26 460.9 301.61 460.9C303.96 460.9 306.07 460.38 307.93 459.34C309.79 458.3 311.25 456.87 312.31 455.05C313.37 453.23 313.9 451.15 313.9 448.8C313.9 446.45 313.37 444.36 312.31 442.55C311.25 440.73 309.79 439.31 307.93 438.29ZM308.53 453.21C307.84 454.48 306.9 455.45 305.69 456.14C304.48 456.83 303.12 457.17 301.6 457.17C300.08 457.17 298.73 456.83 297.54 456.14C296.35 455.46 295.4 454.48 294.68 453.21C293.97 451.95 293.61 450.48 293.61 448.81C293.61 447.14 293.97 445.65 294.68 444.41C295.39 443.18 296.35 442.21 297.54 441.53C298.73 440.85 300.09 440.5 301.6 440.5C303.11 440.5 304.48 440.84 305.69 441.53C306.9 442.22 307.84 443.18 308.53 444.41C309.21 445.65 309.56 447.11 309.56 448.81C309.56 450.51 309.22 451.94 308.53 453.21Z" fill="black"/>
<path d="M328.23 436.75C326.35 436.75 324.56 437.01 322.85 437.53C321.14 438.05 319.67 438.8 318.45 439.79L320.24 443.01C321.16 442.24 322.29 441.62 323.63 441.16C324.97 440.7 326.34 440.47 327.74 440.47C329.85 440.47 331.44 440.97 332.5 441.97C333.56 442.97 334.08 444.38 334.08 446.19V447.04H327.29C324.94 447.04 323.07 447.35 321.68 447.98C320.3 448.61 319.3 449.44 318.69 450.48C318.08 451.52 317.77 452.68 317.77 453.96C317.77 455.24 318.13 456.5 318.84 457.55C319.55 458.61 320.57 459.43 321.9 460.03C323.23 460.63 324.77 460.92 326.52 460.92C328.69 460.92 330.49 460.51 331.92 459.69C332.93 459.11 333.71 458.38 334.29 457.52V460.65H338.35V446.36C338.35 443.11 337.47 440.7 335.71 439.12C333.95 437.54 331.45 436.75 328.21 436.75H328.23ZM331.46 456.54C330.25 457.25 328.85 457.61 327.24 457.61C325.63 457.61 324.32 457.26 323.4 456.56C322.48 455.86 322.02 454.93 322.02 453.77C322.02 452.76 322.39 451.89 323.14 451.18C323.89 450.47 325.33 450.11 327.47 450.11H334.08V453.41C333.54 454.78 332.67 455.82 331.47 456.54H331.46Z" fill="black"/>
<path d="M354.93 457.3C353.74 457.3 352.82 456.96 352.18 456.27C351.54 455.59 351.22 454.6 351.22 453.32V440.5H358.01V436.97H351.22V431.79H346.93V436.97H342.91V440.5H346.93V453.5C346.93 455.88 347.59 457.71 348.9 458.99C350.21 460.27 352.06 460.91 354.44 460.91C355.42 460.91 356.37 460.78 357.28 460.51C358.19 460.24 358.97 459.83 359.62 459.26L358.28 456.18C357.39 456.92 356.27 457.3 354.93 457.3Z" fill="black"/>
<path d="M394.93 445.6C393.81 444.98 392.58 444.47 391.22 444.08C389.86 443.69 388.52 443.34 387.18 443.03C385.84 442.72 384.61 442.37 383.49 441.98C382.37 441.59 381.47 441.07 380.77 440.42C380.07 439.77 379.72 438.89 379.72 437.79C379.72 436.87 379.98 436.03 380.5 435.29C381.02 434.55 381.85 433.95 382.98 433.5C384.11 433.05 385.55 432.83 387.31 432.83C388.71 432.83 390.15 433.03 391.64 433.43C393.13 433.83 394.54 434.48 395.88 435.37L397.35 431.8C396.04 430.91 394.49 430.22 392.71 429.75C390.92 429.27 389.12 429.04 387.31 429.04C384.57 429.04 382.31 429.45 380.54 430.27C378.77 431.09 377.46 432.18 376.61 433.53C375.76 434.89 375.34 436.37 375.34 437.97C375.34 439.57 375.68 441 376.37 442.06C377.05 443.12 377.95 443.96 379.07 444.58C380.19 445.21 381.42 445.72 382.78 446.12C384.13 446.52 385.48 446.87 386.82 447.17C388.16 447.47 389.39 447.82 390.5 448.22C391.62 448.62 392.52 449.15 393.22 449.8C393.92 450.46 394.27 451.32 394.27 452.39C394.27 453.31 394 454.14 393.47 454.87C392.93 455.6 392.1 456.17 390.97 456.59C389.84 457.01 388.36 457.21 386.55 457.21C384.55 457.21 382.63 456.87 380.79 456.18C378.94 455.49 377.42 454.63 376.23 453.59L374.58 457.07C375.83 458.23 377.54 459.18 379.72 459.91C381.89 460.64 384.17 461 386.55 461C389.29 461 391.56 460.59 393.36 459.77C395.16 458.95 396.49 457.86 397.36 456.51C398.22 455.15 398.65 453.69 398.65 452.11C398.65 450.53 398.31 449.13 397.62 448.09C396.93 447.05 396.03 446.21 394.92 445.59L394.93 445.6Z" fill="black"/>
<path d="M423.27 438.27C421.48 437.26 419.43 436.75 417.11 436.75C415.08 436.75 413.26 437.2 411.64 438.09C410.47 438.73 409.48 439.62 408.67 440.73V436.98H404.56V469.32H408.85V457.04C409.66 458.09 410.61 458.94 411.73 459.56C413.35 460.47 415.15 460.92 417.11 460.92C419.43 460.92 421.49 460.41 423.27 459.4C425.06 458.39 426.47 456.97 427.51 455.16C428.55 453.34 429.07 451.23 429.07 448.82C429.07 446.41 428.55 444.3 427.51 442.5C426.47 440.7 425.05 439.29 423.27 438.28V438.27ZM423.69 453.21C422.99 454.48 422.04 455.45 420.83 456.14C419.62 456.83 418.26 457.17 416.74 457.17C415.22 457.17 413.9 456.83 412.7 456.14C411.49 455.46 410.54 454.48 409.84 453.21C409.14 451.95 408.79 450.48 408.79 448.81C408.79 447.14 409.14 445.65 409.84 444.41C410.54 443.18 411.49 442.21 412.7 441.53C413.91 440.85 415.25 440.5 416.74 440.5C418.23 440.5 419.62 440.84 420.83 441.53C422.04 442.22 422.99 443.18 423.69 444.41C424.39 445.65 424.74 447.11 424.74 448.81C424.74 450.51 424.39 451.94 423.69 453.21Z" fill="black"/>
<path d="M450.78 438.27C449.02 437.26 447 436.75 444.71 436.75C442.42 436.75 440.42 437.26 438.61 438.29C436.8 439.32 435.39 440.74 434.37 442.55C433.34 444.37 432.83 446.45 432.83 448.8C432.83 451.15 433.36 453.24 434.41 455.05C435.47 456.87 436.96 458.3 438.88 459.34C440.8 460.38 443.03 460.9 445.56 460.9C447.52 460.9 449.3 460.57 450.9 459.92C452.49 459.27 453.83 458.31 454.9 457.06L452.53 454.29C451.67 455.24 450.66 455.96 449.52 456.43C448.37 456.91 447.1 457.14 445.7 457.14C444 457.14 442.5 456.8 441.19 456.11C439.88 455.43 438.86 454.46 438.13 453.23C437.59 452.32 437.26 451.31 437.11 450.22H456.33C456.36 450.01 456.38 449.79 456.4 449.55C456.41 449.31 456.42 449.1 456.42 448.92C456.42 446.48 455.92 444.34 454.92 442.51C453.92 440.68 452.55 439.26 450.79 438.24L450.78 438.27ZM440.73 441.37C441.89 440.7 443.22 440.37 444.7 440.37C446.18 440.37 447.55 440.7 448.7 441.37C449.85 442.04 450.75 442.97 451.4 444.16C451.9 445.06 452.19 446.06 452.3 447.15H437.09C437.22 446.07 437.52 445.08 438.01 444.18C438.66 442.97 439.57 442.04 440.73 441.37Z" fill="black"/>
<path d="M468.46 441.53C469.68 440.85 471.07 440.5 472.61 440.5C473.89 440.5 475.09 440.78 476.2 441.33C477.32 441.88 478.26 442.74 479.04 443.9L482.3 441.8C481.38 440.13 480.07 438.87 478.39 438.03C476.71 437.18 474.8 436.76 472.65 436.76C470.24 436.76 468.09 437.27 466.2 438.3C464.31 439.33 462.83 440.75 461.76 442.56C460.69 444.38 460.15 446.46 460.15 448.81C460.15 451.16 460.69 453.25 461.76 455.06C462.83 456.88 464.31 458.31 466.2 459.35C468.09 460.39 470.24 460.91 472.65 460.91C474.79 460.91 476.71 460.47 478.39 459.59C480.07 458.71 481.38 457.45 482.3 455.82L479.04 453.77C478.27 454.93 477.32 455.79 476.2 456.34C475.08 456.89 473.88 457.17 472.61 457.17C471.06 457.17 469.68 456.83 468.46 456.14C467.24 455.46 466.27 454.49 465.56 453.24C464.85 451.99 464.49 450.52 464.49 448.82C464.49 447.12 464.85 445.66 465.56 444.42C466.27 443.19 467.24 442.22 468.46 441.54V441.53Z" fill="black"/>
<path d="M489.99 427.46C489.25 427.46 488.62 427.71 488.11 428.22C487.6 428.73 487.35 429.35 487.35 430.1C487.35 430.85 487.6 431.47 488.11 431.98C488.62 432.49 489.24 432.74 489.99 432.74C490.74 432.74 491.36 432.49 491.87 431.98C492.38 431.47 492.63 430.85 492.63 430.1C492.63 429.35 492.38 428.73 491.87 428.22C491.36 427.71 490.74 427.46 489.99 427.46Z" fill="black"/>
<path d="M492.14 436.98H487.85V460.65H492.14V436.98Z" fill="black"/>
<path d="M508.93 436.75C507.05 436.75 505.26 437.01 503.55 437.53C501.84 438.05 500.37 438.8 499.15 439.79L500.94 443.01C501.86 442.24 502.99 441.62 504.33 441.16C505.67 440.7 507.04 440.47 508.44 440.47C510.55 440.47 512.14 440.97 513.2 441.97C514.26 442.97 514.79 444.38 514.79 446.19V447.04H508C505.65 447.04 503.78 447.35 502.39 447.98C501.01 448.61 500.01 449.44 499.4 450.48C498.79 451.52 498.48 452.68 498.48 453.96C498.48 455.24 498.84 456.5 499.55 457.55C500.26 458.61 501.28 459.43 502.61 460.03C503.93 460.63 505.48 460.92 507.23 460.92C509.4 460.92 511.2 460.51 512.63 459.69C513.64 459.11 514.42 458.38 515 457.52V460.65H519.06V446.36C519.06 443.11 518.18 440.7 516.43 439.12C514.68 437.54 512.17 436.75 508.93 436.75ZM512.17 456.54C510.96 457.25 509.56 457.61 507.95 457.61C506.34 457.61 505.03 457.26 504.11 456.56C503.19 455.86 502.73 454.93 502.73 453.77C502.73 452.76 503.1 451.89 503.85 451.18C504.59 450.47 506.04 450.11 508.18 450.11H514.79V453.41C514.25 454.78 513.38 455.82 512.18 456.54H512.17Z" fill="black"/>
<path d="M531.31 427.51H527.02V460.65H531.31V427.51Z" fill="black"/>
<path d="M541.62 427.46C540.87 427.46 540.25 427.71 539.74 428.22C539.23 428.73 538.98 429.35 538.98 430.1C538.98 430.85 539.23 431.47 539.74 431.98C540.25 432.49 540.87 432.74 541.62 432.74C542.37 432.74 542.99 432.49 543.5 431.98C544.01 431.47 544.26 430.85 544.26 430.1C544.26 429.35 544.01 428.73 543.5 428.22C542.99 427.71 542.37 427.46 541.62 427.46Z" fill="black"/>
<path d="M543.77 436.98H539.48V460.65H543.77V436.98Z" fill="black"/>
<path d="M565.99 448.81C565.11 448.36 564.14 448.01 563.06 447.76C561.98 447.51 560.92 447.3 559.84 447.13C558.77 446.97 557.79 446.77 556.92 446.53C556.04 446.29 555.33 445.96 554.78 445.53C554.23 445.1 553.95 444.48 553.95 443.68C553.95 442.73 554.41 441.95 555.33 441.34C556.25 440.73 557.65 440.42 559.53 440.42C560.69 440.42 561.85 440.55 563.01 440.82C564.17 441.09 565.29 441.58 566.36 442.29L568.19 438.9C567.18 438.22 565.87 437.69 564.28 437.32C562.69 436.95 561.12 436.76 559.57 436.76C557.54 436.76 555.8 437.05 554.32 437.63C552.85 438.21 551.71 439.04 550.9 440.11C550.09 441.18 549.69 442.43 549.69 443.86C549.69 445.29 549.96 446.32 550.49 447.14C551.03 447.96 551.74 448.6 552.63 449.06C553.52 449.52 554.51 449.88 555.58 450.13C556.65 450.38 557.72 450.59 558.8 450.76C559.87 450.92 560.85 451.11 561.73 451.32C562.61 451.53 563.31 451.84 563.85 452.26C564.39 452.68 564.65 453.26 564.65 454C564.65 455.01 564.21 455.8 563.33 456.37C562.45 456.94 561.01 457.22 559.02 457.22C557.47 457.22 555.95 456.98 554.46 456.51C552.97 456.03 551.72 455.45 550.71 454.77L548.92 458.16C549.93 458.93 551.32 459.59 553.1 460.12C554.88 460.65 556.74 460.92 558.71 460.92C560.82 460.92 562.64 460.63 564.16 460.05C565.68 459.47 566.86 458.66 567.69 457.62C568.52 456.58 568.94 455.34 568.94 453.91C568.94 452.57 568.66 451.5 568.11 450.69C567.56 449.89 566.84 449.26 565.97 448.81H565.99Z" fill="black"/>
<path d="M582.93 457.3C581.74 457.3 580.82 456.96 580.18 456.27C579.54 455.59 579.22 454.6 579.22 453.32V440.5H586.01V436.97H579.22V431.79H574.93V436.97H570.91V440.5H574.93V453.5C574.93 455.88 575.58 457.71 576.89 458.99C578.2 460.27 580.05 460.91 582.43 460.91C583.41 460.91 584.36 460.78 585.27 460.51C586.18 460.24 586.96 459.83 587.61 459.26L586.27 456.18C585.38 456.92 584.26 457.3 582.92 457.3H582.93Z" fill="black"/>
</g>
<defs>
<linearGradient id="paint0_linear_63_2" x1="254.82" y1="147.13" x2="175.57" y2="147.13" gradientUnits="userSpaceOnUse">
<stop offset="0.46" stop-color="#1C1468"/>
<stop offset="1" stop-color="#6201ED"/>
</linearGradient>
<linearGradient id="paint1_linear_63_2" x1="679.56" y1="147.13" x2="240.81" y2="147.13" gradientUnits="userSpaceOnUse">
<stop offset="0.46" stop-color="#1C1468"/>
<stop offset="1" stop-color="#6201ED"/>
</linearGradient>
<clipPath id="clip0_63_2">
<rect width="588.74" height="469.31" fill="white"/>
</clipPath>
</defs>
</svg>
